PathFileType  4	(X/Y/Z) C:\Users\antoi\Documents\MyRepositories\mobilecap\ResultsAnalysis
DataRate	CameraRate	NumFrames	NumMarkers	Units	OrigDataRate	OrigDataStartFrame	OrigNumFrames
100.0	100.0	6	51	mm	100.0	50	132
Frame#	Time	r_knee			r_shank_antsup			r_ankle			r_calc			r_5meta			r_toe			L_knee			L_shank_antsup			L_ankle			L_calc			L_5meta			L_toe			r_sh2			r_sh3			r_sh4			L_sh2			L_sh3			r_thigh1			r_thigh2			r_thigh3			r_thigh4			r_thigh5			L_thigh1			L_thigh2			L_thigh3			L_thigh4			r.ASIS			r.PSIS			L.ASIS			L.PSIS			C7			R_Shoulder			L_Shoulder			R_Sternum			L_Sternum			R_humerus			R_elbow_med			R_elbow_lat			R_forearm			R_wrist_radius			R_wrist_ulna			L_humerus			L_elbow_med			L_elbow_lat			L_forearm			L_wrist_radius			L_wrist_ulna			R_HJC			L_HJC			R_HJC_reg			L_HJC_reg			
		X1	Y1	Z1	X2	Y2	Z2	X3	Y3	Z3	X4	Y4	Z4	X5	Y5	Z5	X6	Y6	Z6	X7	Y7	Z7	X8	Y8	Z8	X9	Y9	Z9	X10	Y10	Z10	X11	Y11	Z11	X12	Y12	Z12	X13	Y13	Z13	X14	Y14	Z14	X15	Y15	Z15	X16	Y16	Z16	X17	Y17	Z17	X18	Y18	Z18	X19	Y19	Z19	X20	Y20	Z20	X21	Y21	Z21	X22	Y22	Z22	X23	Y23	Z23	X24	Y24	Z24	X25	Y25	Z25	X26	Y26	Z26	X27	Y27	Z27	X28	Y28	Z28	X29	Y29	Z29	X30	Y30	Z30	X31	Y31	Z31	X32	Y32	Z32	X33	Y33	Z33	X34	Y34	Z34	X35	Y35	Z35	X36	Y36	Z36	X37	Y37	Z37	X38	Y38	Z38	X39	Y39	Z39	X40	Y40	Z40	X41	Y41	Z41	X42	Y42	Z42	X43	Y43	Z43	X44	Y44	Z44	X45	Y45	Z45	X46	Y46	Z46	X47	Y47	Z47	X48	Y48	Z48	X49	Y49	Z49	X50	Y50	Z50	X51	Y51	Z51	

50	0.49000000	288.37470	484.16036	-111.56873	295.31177	382.08568	-125.84558	137.84195	98.84710	-180.35007	77.34260	69.26056	-236.26028	245.60461	41.53194	-128.72591	286.80201	67.35745	-181.20073	592.24114	496.71625	-352.49990	657.96735	443.26933	-336.48782	740.18844	116.78347	-325.26352	690.92815	45.68940	-271.76844	862.49735	101.75818	-352.42126	889.20029	151.46505	-299.15842	257.80109	276.96249	-142.71684	230.10292	398.40582	-89.94727	185.44160	293.84801	-102.78644	580.49957	422.03342	-380.35870	624.85113	308.19448	-382.54806	405.09108	746.34330	-61.13158	390.80464	639.29964	-83.41041	330.78715	617.95765	-59.69675	292.19644	754.62860	-44.48256	281.80912	643.93524	-76.40268	554.82141	746.45176	-360.69454	617.73928	624.43198	-331.20751	476.64692	694.16894	-418.23636	531.24897	577.59438	-379.48561	460.94794	943.84175	-87.97858	269.98958	972.62235	-213.98488	499.85931	940.19972	-342.64064	289.46460	961.10387	-303.70045	313.01872	1428.88920	-225.09536	372.52291	1396.33806	-57.98401	396.93661	1400.14747	-376.50275	437.99147	1354.58677	-194.64233	440.87749	1357.79567	-241.25929	433.48813	1279.08757	-7.13781	417.28391	1060.37086	-33.21220	425.93503	1077.10134	31.36603	506.71340	1046.88255	47.80942	631.36101	932.63358	13.67843	602.65502	915.35922	51.56634	394.71717	1261.12292	-446.30962	282.14563	1081.04518	-403.48624	289.42151	1096.85899	-482.01261	317.48523	1030.92289	-509.33934	302.59284	852.36794	-516.20619	266.45966	872.63417	-547.20383	383.74657	854.78562	-129.70744	419.53805	850.07039	-315.80460	386.27973	878.00225	-132.30547	422.07444	856.83430	-297.19447	
51	0.50000000	297.39308	483.03045	-111.78435	302.52987	380.69207	-126.02459	138.89422	100.45001	-180.14411	78.07504	71.46617	-236.06431	245.69188	41.29307	-128.57308	287.15232	66.82622	-180.95936	605.97755	495.24598	-351.35468	671.38252	441.16346	-335.56070	751.91876	114.74069	-323.14137	702.74906	44.02974	-269.00452	873.86486	99.43026	-351.29983	901.10536	148.95861	-298.28586	262.77398	276.30937	-142.79247	237.53859	398.23516	-90.07527	190.80895	294.71376	-102.78281	593.70433	420.13289	-379.09614	637.75765	306.37470	-380.93552	416.54325	744.18650	-61.22662	401.15845	637.25910	-83.38163	341.01609	616.55897	-59.80442	303.47018	753.42676	-44.86684	292.34223	642.85780	-76.85173	568.35550	744.86766	-360.21466	631.32633	623.02092	-330.22081	490.31529	692.38552	-417.72478	544.96357	575.95429	-378.67607	473.59502	941.49960	-87.50870	283.10685	970.58365	-214.21593	513.10244	937.89393	-342.45575	302.62473	959.17208	-303.87705	326.03734	1426.83410	-225.72607	385.48797	1394.22979	-58.43041	410.09209	1397.80517	-376.94202	451.05637	1352.33036	-194.99474	454.12579	1355.55145	-241.61231	446.37723	1277.02280	-7.56935	430.61453	1058.25811	-33.62932	439.06063	1075.06986	30.95181	519.98024	1045.21749	47.43822	645.29275	931.72867	13.34094	616.64931	914.24378	51.15551	407.80211	1258.66596	-446.63930	295.31048	1078.52333	-403.84593	302.56673	1094.60507	-482.42502	330.22595	1028.61488	-509.84869	314.00425	850.17637	-517.23796	277.94445	870.76700	-548.06624	396.37285	852.57115	-129.68680	432.59971	847.89193	-315.70117	399.03806	875.58777	-132.01297	434.98370	854.57524	-297.13860	
52	0.51000000	306.93428	481.85949	-112.01703	310.22167	379.29919	-126.16692	140.08859	102.30874	-179.79474	78.94052	74.12744	-235.76272	245.79372	41.02652	-128.38544	287.64653	66.32195	-180.64631	620.17271	494.07723	-350.07889	684.96447	438.79081	-334.42461	761.34508	112.23400	-320.95638	711.56910	42.58426	-266.46977	882.73561	95.39957	-350.17313	911.08923	144.20095	-297.26386	268.08867	275.73302	-142.81838	245.52834	398.16591	-90.19898	196.56785	295.74386	-102.72908	607.01718	418.54212	-377.75305	649.98292	304.62267	-379.22982	428.34196	742.07529	-61.42277	411.99239	635.12994	-83.63641	351.62427	615.14110	-59.92810	315.09910	752.19431	-45.33121	303.23744	641.69933	-77.29636	582.07523	743.61335	-359.97929	645.30742	622.07458	-329.44792	504.21853	690.76543	-417.34434	559.05409	574.60763	-377.92026	486.54736	939.22491	-87.11798	296.48351	968.67519	-214.27238	526.49075	935.88597	-342.35180	315.87327	957.50286	-303.84845	339.11676	1424.91263	-226.47876	398.59052	1392.41036	-59.05922	423.24140	1395.63717	-377.54075	464.23994	1350.31049	-195.52992	467.43700	1353.51612	-242.15219	459.36600	1275.18065	-8.15614	443.59180	1056.41761	-34.22413	451.83411	1073.24075	30.38477	532.84065	1043.61973	46.94388	658.63938	930.67808	12.91329	630.00901	913.02568	50.65100	421.07130	1256.38461	-447.09681	308.95914	1076.02527	-404.25076	316.17781	1092.32165	-482.89336	343.54284	1026.31977	-510.37780	326.02469	847.95112	-518.26701	290.14412	868.87079	-548.92731	409.32071	850.44305	-129.71294	445.79765	845.98576	-315.68383	412.19125	873.22627	-131.72813	447.99824	852.59845	-297.16310	
53	0.52000000	316.96151	480.66930	-112.26308	318.35228	377.92117	-126.29431	141.47751	104.46807	-179.30170	79.97272	77.32573	-235.33614	245.93860	40.75088	-128.16101	288.29316	65.85196	-180.25315	634.58633	493.12485	-348.71846	698.56920	436.22715	-333.06810	768.92354	109.55250	-318.71809	717.90960	41.59198	-264.26202	889.54837	90.06663	-349.03695	919.54649	137.53840	-296.01686	273.73659	275.26268	-142.79778	254.05370	398.21992	-90.32232	202.72436	296.96580	-102.63422	620.34216	417.20120	-376.32093	661.56128	302.90263	-377.39498	440.47293	740.02601	-61.68891	423.33430	632.97997	-84.05653	362.61668	613.71424	-60.08168	327.11580	750.95310	-45.86333	314.49072	640.48537	-77.73302	595.93295	742.65370	-360.01802	659.57788	621.51888	-328.91909	518.24211	689.29374	-417.05866	573.36575	573.52074	-377.19209	499.86606	937.02055	-86.82672	310.13488	966.92112	-214.18765	540.05593	934.18461	-342.34841	329.24274	956.05466	-303.64463	352.24705	1423.12149	-227.36327	411.79169	1390.89267	-59.86939	436.40134	1393.64558	-378.29941	477.53977	1348.54332	-196.24178	480.79643	1351.70091	-242.88168	472.43333	1273.56597	-8.90798	456.21642	1054.84868	-34.97240	464.25640	1071.62648	29.68280	545.29916	1042.09640	46.33841	671.39085	929.48233	12.39088	642.73474	911.71165	50.05498	434.53902	1254.27448	-447.66585	323.04152	1073.58452	-404.71527	330.20436	1090.01535	-483.41609	357.38696	1024.05825	-510.94175	338.67943	845.70297	-519.28196	303.07481	866.94277	-549.77641	422.63398	848.40929	-129.80295	459.17249	844.34671	-315.77034	425.73715	871.01682	-131.45196	461.14205	850.88516	-297.24567	
54	0.53000000	327.46457	479.48758	-112.52015	326.89147	376.56586	-126.44180	143.12771	106.97596	-178.67376	81.21590	81.14508	-234.77381	246.16404	40.48926	-127.90559	289.10287	65.41339	-179.77812	648.96206	492.32591	-347.36280	712.07548	433.60955	-331.53007	775.19627	106.94476	-316.44519	722.39047	41.24551	-262.42418	894.81262	83.86414	-347.88478	926.87001	129.45121	-294.52792	279.72576	274.92636	-142.73803	263.10672	398.41135	-90.44887	209.29847	298.40843	-102.51419	633.59996	416.07991	-374.82150	672.59464	301.23306	-375.43494	452.93119	738.06339	-61.99405	435.19478	630.89220	-84.51624	374.03317	612.30269	-60.28537	339.55137	749.72450	-46.45303	326.13769	639.25479	-78.17576	609.87861	741.94331	-360.37242	673.99590	621.24873	-328.67492	532.23833	687.97423	-416.82756	587.70454	572.65779	-376.48318	513.60144	934.89064	-86.65506	324.05649	965.35744	-213.99255	553.80062	932.78248	-342.46388	342.75907	954.80347	-303.31347	365.42109	1421.47384	-228.38619	425.05645	1389.67580	-60.85087	449.58909	1391.83147	-379.21462	490.94862	1347.04768	-197.11920	494.18765	1350.12238	-243.79361	485.54199	1272.17565	-9.82645	468.49606	1053.53761	-35.84607	476.33692	1070.23325	28.86426	557.36636	1040.64782	45.63492	683.54338	928.13659	11.77624	654.83368	910.30064	49.37033	448.21778	1252.32503	-448.32222	337.51232	1071.22322	-405.24644	344.60502	1087.70558	-483.99225	371.71089	1021.84918	-511.55054	352.03723	843.45467	-520.26392	316.75038	864.97955	-550.60177	436.32741	846.48533	-129.97378	472.73494	842.96564	-315.97738	439.64830	869.04210	-131.20079	474.42980	849.41543	-297.37463	
55	0.54000000	338.47225	478.34352	-112.78501	335.83831	375.24617	-126.63649	145.11630	109.88028	-177.92462	82.73187	85.66453	-234.07759	246.50843	40.26482	-127.63164	290.09492	64.99210	-179.22536	663.09876	491.66409	-346.12164	725.42523	431.11484	-329.89313	780.68841	104.56919	-314.19036	725.62873	41.61089	-260.96524	899.03136	77.20549	-346.71288	933.37604	120.49801	-292.84516	286.09213	274.75291	-142.64465	272.70252	398.75082	-90.57930	216.32862	300.10171	-102.38745	646.75218	415.19380	-373.30333	683.25444	299.70020	-373.40989	465.72884	736.21962	-62.31786	447.57887	628.93545	-84.94041	385.94412	610.93699	-60.55606	352.43522	748.52782	-47.09066	338.24612	638.04991	-78.64473	623.86516	741.43744	-361.08886	688.40649	621.15383	-328.75718	546.05948	686.83287	-416.62134	601.88024	571.99225	-375.80413	527.78377	932.84982	-86.62373	338.22732	964.02760	-213.70467	567.69905	931.66715	-342.71347	356.43727	953.75682	-302.90800	378.63783	1420.00211	-229.54658	438.36322	1388.75016	-61.98414	462.81428	1390.20112	-380.28185	504.45668	1345.84740	-198.14807	507.59640	1348.80544	-244.87116	498.64488	1271.00400	-10.89681	480.43597	1052.46881	-36.81917	488.08772	1069.06421	27.94525	569.05480	1039.27348	44.84558	695.09861	926.63752	11.07744	666.31194	908.78572	48.60187	462.11271	1250.52834	-449.03939	352.33552	1068.95245	-405.84254	359.34967	1085.42550	-484.62013	386.47852	1019.71244	-512.20461	366.18320	841.23780	-521.18838	331.17890	862.98218	-551.39045	450.38863	844.69862	-130.23914	486.46562	841.84034	-316.31807	453.88564	867.35117	-131.00795	487.86942	848.18305	-297.55681	
